<svg xmlns="http://www.w3.org/2000/svg" width="800" height="400" fill="none">
  <rect width="800" height="400" rx="16" fill="#0a1628"/>
  <!-- Calendar card -->
  <rect x="60" y="30" width="320" height="340" rx="16" fill="#1e293b" stroke="#3b82f6" stroke-width="1"/>
  <rect x="60" y="30" width="320" height="50" rx="16" fill="#1d4ed8"/>
  <rect x="60" y="64" width="320" height="16" fill="#1d4ed8"/>
  <text x="150" y="62" font-family="monospace" font-size="16" fill="white" font-weight="bold">March 2026</text>
  <text x="80" y="100" font-family="monospace" font-size="10" fill="#64748b">Mon Tue Wed Thu Fri Sat Sun</text>
  <text x="80" y="120" font-family="monospace" font-size="10" fill="#94a3b8">                  1   2   3</text>
  <text x="80" y="138" font-family="monospace" font-size="10" fill="#94a3b8"> 4   5   6   7   8   9  10</text>
  <text x="80" y="156" font-family="monospace" font-size="10" fill="#94a3b8">11  12  13  14  15  16  17</text>
  <text x="80" y="174" font-family="monospace" font-size="10" fill="#94a3b8">18  19  20  21  22  23  24</text>
  <text x="80" y="192" font-family="monospace" font-size="10" fill="#94a3b8">25  26  27  28  29  30  31</text>
  <!-- Highlight on day 15 -->
  <rect x="207" y="145" width="22" height="16" rx="4" fill="#3b82f6" opacity="0.4"/>
  <!-- Appointment card -->
  <rect x="80" y="215" width="280" height="135" rx="10" fill="#0f172a" stroke="#2563eb" stroke-width="1"/>
  <text x="100" y="240" font-family="monospace" font-size="12" fill="#60a5fa">Appointment Details</text>
  <line x1="100" y1="248" x2="340" y2="248" stroke="#1e3a5f" stroke-width="1"/>
  <text x="100" y="268" font-family="monospace" font-size="11" fill="#93c5fd">Doctor: Dr. Smith</text>
  <text x="100" y="288" font-family="monospace" font-size="11" fill="#93c5fd">Date:   March 15, 2026</text>
  <text x="100" y="308" font-family="monospace" font-size="11" fill="#93c5fd">Time:   10:30 AM</text>
  <text x="100" y="328" font-family="monospace" font-size="11" fill="#93c5fd">Dept:   Cardiology</text>
  <!-- Right side - status panel -->
  <rect x="430" y="30" width="320" height="340" rx="16" fill="#1e293b" stroke="#3b82f6" stroke-width="1"/>
  <text x="500" y="65" font-family="monospace" font-size="14" fill="#60a5fa" font-weight="bold">Upcoming</text>
  <rect x="450" y="85" width="280" height="55" rx="8" fill="#0f172a"/>
  <circle cx="472" cy="112" r="8" fill="#22c55e"/>
  <text x="488" y="108" font-family="monospace" font-size="10" fill="#93c5fd">Dr. Smith - Cardiology</text>
  <text x="488" y="124" font-family="monospace" font-size="9" fill="#64748b">Mar 15 | 10:30 AM | Confirmed</text>
  <rect x="450" y="150" width="280" height="55" rx="8" fill="#0f172a"/>
  <circle cx="472" cy="177" r="8" fill="#eab308"/>
  <text x="488" y="173" font-family="monospace" font-size="10" fill="#93c5fd">Dr. Patel - Neurology</text>
  <text x="488" y="189" font-family="monospace" font-size="9" fill="#64748b">Mar 22 | 02:00 PM | Pending</text>
  <rect x="450" y="215" width="280" height="55" rx="8" fill="#0f172a"/>
  <circle cx="472" cy="242" r="8" fill="#22c55e"/>
  <text x="488" y="238" font-family="monospace" font-size="10" fill="#93c5fd">Dr. Lee - Dermatology</text>
  <text x="488" y="254" font-family="monospace" font-size="9" fill="#64748b">Apr 03 | 09:00 AM | Confirmed</text>
  <rect x="490" y="300" width="220" height="40" rx="8" fill="#2563eb"/>
  <text x="525" y="325" font-family="monospace" font-size="12" fill="white">+ New Appointment</text>
</svg>
