<svg xmlns="http://www.w3.org/2000/svg" width="800" height="400" fill="none">
  <rect width="800" height="400" rx="16" fill="#0a0a1a"/>
  <!-- Stars -->
  <circle cx="100" cy="50" r="1.5" fill="#fbbf24" opacity="0.7"/>
  <circle cx="250" cy="30" r="1" fill="#fbbf24" opacity="0.5"/>
  <circle cx="400" cy="60" r="2" fill="#fbbf24" opacity="0.8"/>
  <circle cx="600" cy="40" r="1.5" fill="#fbbf24" opacity="0.6"/>
  <circle cx="700" cy="80" r="1" fill="#fbbf24" opacity="0.4"/>
  <circle cx="150" cy="100" r="1" fill="#fbbf24" opacity="0.5"/>
  <circle cx="550" cy="90" r="1.5" fill="#fbbf24" opacity="0.7"/>
  <!-- UFO Game -->
  <rect x="40" y="120" width="230" height="150" rx="10" fill="#111128" stroke="#4f46e5" stroke-width="1"/>
  <text x="60" y="150" font-family="monospace" font-size="11" fill="#818cf8">UFO Collector</text>
  <ellipse cx="155" cy="210" rx="40" ry="15" fill="#6366f1" opacity="0.6"/>
  <rect x="140" y="190" width="30" height="12" rx="6" fill="#818cf8"/>
  <text x="60" y="250" font-family="monospace" font-size="10" fill="#4f46e5">Score: 1250</text>
  <!-- Snake Game -->
  <rect x="285" y="120" width="230" height="150" rx="10" fill="#0a1a0a" stroke="#22c55e" stroke-width="1"/>
  <text x="305" y="150" font-family="monospace" font-size="11" fill="#4ade80">Snake</text>
  <rect x="340" y="170" width="12" height="12" fill="#22c55e"/>
  <rect x="352" y="170" width="12" height="12" fill="#16a34a"/>
  <rect x="364" y="170" width="12" height="12" fill="#15803d"/>
  <rect x="376" y="170" width="12" height="12" fill="#166534"/>
  <rect x="376" y="182" width="12" height="12" fill="#14532d"/>
  <rect x="420" y="200" width="10" height="10" rx="5" fill="#ef4444"/>
  <text x="305" y="250" font-family="monospace" font-size="10" fill="#22c55e">Score: 840</text>
  <!-- Space Shooter -->
  <rect x="530" y="120" width="230" height="150" rx="10" fill="#0a0a1a" stroke="#f59e0b" stroke-width="1"/>
  <text x="550" y="150" font-family="monospace" font-size="11" fill="#fbbf24">Space Shooter</text>
  <polygon points="645,180 635,210 655,210" fill="#f59e0b"/>
  <rect x="643" y="165" width="4" height="15" fill="#ef4444"/>
  <circle cx="620" cy="190" r="6" fill="#ef4444" opacity="0.6"/>
  <circle cx="670" cy="195" r="5" fill="#ef4444" opacity="0.5"/>
  <text x="550" y="250" font-family="monospace" font-size="10" fill="#f59e0b">Score: 2100</text>
  <!-- Title bar -->
  <text x="240" y="340" font-family="system-ui,sans-serif" font-size="24" fill="#e2e8f0" font-weight="bold">15+ Browser Games</text>
  <text x="290" y="365" font-family="monospace" font-size="12" fill="#64748b">Vanilla JS &bull; HTML5 Canvas</text>
</svg>
