<svg xmlns="http://www.w3.org/2000/svg" width="800" height="400" fill="none">
  <rect width="800" height="400" rx="16" fill="#0f172a"/>
  <rect x="40" y="40" width="720" height="320" rx="12" fill="#1e293b" stroke="#334155" stroke-width="1"/>
  <rect x="60" y="70" width="300" height="200" rx="8" fill="#0f172a"/>
  <rect x="80" y="90" width="260" height="140" rx="4" fill="#1e3a5f"/>
  <rect x="100" y="110" width="100" height="8" rx="4" fill="#60a5fa"/>
  <rect x="100" y="128" width="160" height="6" rx="3" fill="#475569"/>
  <rect x="100" y="144" width="130" height="6" rx="3" fill="#475569"/>
  <rect x="100" y="168" width="60" height="24" rx="6" fill="#2563eb"/>
  <text x="118" y="185" font-family="monospace" font-size="11" fill="white">Buy</text>
  <rect x="380" y="70" width="300" height="90" rx="8" fill="#0f172a"/>
  <rect x="400" y="85" width="80" height="8" rx="4" fill="#60a5fa"/>
  <rect x="400" y="103" width="200" height="6" rx="3" fill="#475569"/>
  <rect x="400" y="119" width="160" height="6" rx="3" fill="#475569"/>
  <rect x="400" y="135" width="50" height="16" rx="4" fill="#22c55e"/>
  <text x="411" y="147" font-family="monospace" font-size="9" fill="white">$999</text>
  <rect x="380" y="175" width="300" height="90" rx="8" fill="#0f172a"/>
  <rect x="400" y="190" width="80" height="8" rx="4" fill="#60a5fa"/>
  <rect x="400" y="208" width="200" height="6" rx="3" fill="#475569"/>
  <rect x="400" y="224" width="160" height="6" rx="3" fill="#475569"/>
  <rect x="400" y="240" width="50" height="16" rx="4" fill="#22c55e"/>
  <text x="411" y="252" font-family="monospace" font-size="9" fill="white">$749</text>
  <text x="400" y="330" font-family="system-ui,sans-serif" font-size="18" fill="#94a3b8" font-weight="bold">Laptops E-Commerce</text>
</svg>
