<svg xmlns="http://www.w3.org/2000/svg" width="800" height="400" fill="none">
  <rect width="800" height="400" rx="16" fill="#0f0a1a"/>
  <rect x="170" y="30" width="460" height="340" rx="14" fill="#1a1028" stroke="#a855f7" stroke-width="1"/>
  <text x="280" y="65" font-family="monospace" font-size="15" fill="#c084fc">Library Catalog</text>
  <rect x="200" y="85" width="400" height="30" rx="6" fill="#0f0520" stroke="#7c3aed" stroke-width="1"/>
  <text x="215" y="105" font-family="monospace" font-size="11" fill="#6d28d9">Search books...</text>
  <rect x="200" y="130" width="400" height="55" rx="8" fill="#1a1028" stroke="#581c87" stroke-width="1"/>
  <text x="220" y="152" font-family="monospace" font-size="12" fill="#c084fc">The Great Gatsby</text>
  <text x="220" y="172" font-family="monospace" font-size="10" fill="#7c3aed">F. Scott Fitzgerald</text>
  <rect x="520" y="140" width="60" height="25" rx="4" fill="#166534"/><text x="525" y="157" font-family="monospace" font-size="9" fill="#86efac">Available</text>
  <rect x="200" y="195" width="400" height="55" rx="8" fill="#1a1028" stroke="#581c87" stroke-width="1"/>
  <text x="220" y="217" font-family="monospace" font-size="12" fill="#c084fc">1984</text>
  <text x="220" y="237" font-family="monospace" font-size="10" fill="#7c3aed">George Orwell</text>
  <rect x="520" y="205" width="60" height="25" rx="4" fill="#7f1d1d"/><text x="525" y="222" font-family="monospace" font-size="9" fill="#fca5a5">Reserved</text>
  <rect x="200" y="260" width="400" height="55" rx="8" fill="#1a1028" stroke="#581c87" stroke-width="1"/>
  <text x="220" y="282" font-family="monospace" font-size="12" fill="#c084fc">Clean Code</text>
  <text x="220" y="302" font-family="monospace" font-size="10" fill="#7c3aed">Robert C. Martin</text>
  <rect x="520" y="270" width="60" height="25" rx="4" fill="#166534"/><text x="525" y="287" font-family="monospace" font-size="9" fill="#86efac">Available</text>
  <rect x="200" y="330" width="180" height="30" rx="6" fill="#a855f7"/>
  <text x="230" y="350" font-family="monospace" font-size="11" fill="white">Reserve Selected</text>
</svg>
