<svg xmlns="http://www.w3.org/2000/svg" width="800" height="400" fill="none">
  <rect width="800" height="400" rx="16" fill="#1a0f0a"/>
  <rect x="40" y="30" width="350" height="340" rx="12" fill="#2a1a0f" stroke="#d97706" stroke-width="1"/>
  <text x="70" y="70" font-family="system-ui,sans-serif" font-size="20" fill="#f59e0b" font-weight="bold">NurRest Menu</text>
  <rect x="70" y="90" width="290" height="45" rx="6" fill="#1a0f0a"/>
  <text x="90" y="110" font-family="monospace" font-size="12" fill="#fbbf24">Chicken Burger</text>
  <text x="300" y="110" font-family="monospace" font-size="12" fill="#22c55e">$8.99</text>
  <text x="90" y="126" font-family="monospace" font-size="9" fill="#92400e">Qty: 2</text>
  <rect x="70" y="145" width="290" height="45" rx="6" fill="#1a0f0a"/>
  <text x="90" y="165" font-family="monospace" font-size="12" fill="#fbbf24">Fish & Chips</text>
  <text x="296" y="165" font-family="monospace" font-size="12" fill="#22c55e">$12.50</text>
  <text x="90" y="181" font-family="monospace" font-size="9" fill="#92400e">Qty: 1</text>
  <rect x="70" y="200" width="290" height="45" rx="6" fill="#1a0f0a"/>
  <text x="90" y="220" font-family="monospace" font-size="12" fill="#fbbf24">Cola</text>
  <text x="304" y="220" font-family="monospace" font-size="12" fill="#22c55e">$2.50</text>
  <text x="90" y="236" font-family="monospace" font-size="9" fill="#92400e">Qty: 2</text>
  <rect x="70" y="270" width="290" height="1" fill="#d97706" opacity="0.3"/>
  <text x="70" y="300" font-family="monospace" font-size="14" fill="#f59e0b">Total: $35.48</text>
  <rect x="70" y="320" width="130" height="30" rx="6" fill="#d97706"/>
  <text x="98" y="340" font-family="monospace" font-size="11" fill="white">Pay Cash</text>
  <rect x="215" y="320" width="130" height="30" rx="6" fill="#b45309"/>
  <text x="243" y="340" font-family="monospace" font-size="11" fill="white">Pay Card</text>
  <rect x="430" y="30" width="330" height="340" rx="12" fill="#2a1a0f" stroke="#d97706" stroke-width="1"/>
  <text x="460" y="70" font-family="system-ui,sans-serif" font-size="16" fill="#f59e0b" font-weight="bold">Order Confirmation</text>
  <text x="460" y="110" font-family="monospace" font-size="11" fill="#92400e">Email sent to:</text>
  <text x="460" y="130" font-family="monospace" font-size="10" fill="#fbbf24">customer@email.com</text>
  <rect x="460" y="150" width="270" height="1" fill="#d97706" opacity="0.3"/>
  <text x="460" y="180" font-family="monospace" font-size="11" fill="#92400e">Collection Point:</text>
  <text x="460" y="200" font-family="monospace" font-size="12" fill="#fbbf24">Counter A - Main Hall</text>
  <rect x="460" y="240" width="200" height="30" rx="6" fill="#15803d"/>
  <text x="475" y="260" font-family="monospace" font-size="12" fill="white">Payment Accepted</text>
</svg>
